
      <svg
        width="587"
        height="751"
        viewBox="0 0 587 751"
        fill="none"
        xmlns="http://www.w3.org/2000/svg"
      >
        <path
          d="M73.9554 455.284L73.6618 189.189M73.6618 189.189C132.821 189.401 165.989 189.519 225.147 189.731L73.6618 189.189Z"
          stroke="url(#paint0_linear_20_86)"
          stroke-width="2"
        />
        <path
          d="M120.739 455.5L120.739 211.676M120.739 211.676C164.55 211.706 189.113 211.723 232.924 211.753L176.832 211.715L120.739 211.676Z"
          stroke="url(#paint1_linear_20_86)"
          stroke-width="2"
        />
        <path
          d="M261.674 750L260.932 506.123M260.932 506.123C261.222 406.101 261.385 350.022 261.675 250L261.304 378.062L260.932 506.123Z"
          stroke="url(#paint2_linear_20_86)"
          stroke-width="2"
        />
        <path
          d="M274.311 750L273.57 506.123M273.57 506.123C273.86 406.101 274.023 350.022 274.313 250L273.941 378.062L273.57 506.123Z"
          stroke="url(#paint3_linear_20_86)"
          stroke-width="2"
        />
        <path
          d="M298.1 750L297.358 506.123M297.358 506.123C297.649 406.101 297.811 350.022 298.102 250L297.73 378.062L297.358 506.123Z"
          stroke="url(#paint4_linear_20_86)"
          stroke-width="2"
        />
        <path
          d="M285.462 750L284.721 506.123M284.721 506.123C285.011 406.101 285.174 350.022 285.464 250L285.092 378.062L284.721 506.123Z"
          stroke="url(#paint5_linear_20_86)"
          stroke-width="2"
        />
        <path
          d="M322.632 750L321.89 506.123M321.89 506.123C322.181 406.101 322.343 350.022 322.634 250L322.262 378.062L321.89 506.123Z"
          stroke="url(#paint6_linear_20_86)"
          stroke-width="2"
        />
        <path
          d="M310.738 750L309.996 506.123M309.996 506.123C310.286 406.101 310.449 350.022 310.739 250L310.368 378.062L309.996 506.123Z"
          stroke="url(#paint7_linear_20_86)"
          stroke-width="2"
        />
        <path
          d="M334.526 750L333.785 506.123M333.785 506.123C334.075 406.101 334.238 350.022 334.528 250L334.156 378.062L333.785 506.123Z"
          stroke="url(#paint8_linear_20_86)"
          stroke-width="2"
        />
        <path
          d="M346.421 750L345.679 506.123M345.679 506.123C345.969 406.101 346.132 350.022 346.422 250L346.051 378.062L345.679 506.123Z"
          stroke="url(#paint9_linear_20_86)"
          stroke-width="2"
        />
        <rect
          x="234.31"
          y="167.971"
          width="138.36"
          height="64.8737"
          rx="8"
          fill="#252525"
        />
        <path
          d="M268.93 202.918H264.582V200.176H268.93C269.602 200.176 270.149 200.066 270.571 199.848C270.993 199.621 271.301 199.309 271.496 198.91C271.692 198.512 271.789 198.062 271.789 197.562C271.789 197.055 271.692 196.582 271.496 196.145C271.301 195.707 270.993 195.355 270.571 195.09C270.149 194.824 269.602 194.691 268.93 194.691H265.801V209H262.286V191.938H268.93C270.266 191.938 271.411 192.18 272.364 192.664C273.325 193.141 274.059 193.801 274.567 194.645C275.075 195.488 275.328 196.453 275.328 197.539C275.328 198.641 275.075 199.594 274.567 200.398C274.059 201.203 273.325 201.824 272.364 202.262C271.411 202.699 270.266 202.918 268.93 202.918ZM280.918 199.086V209H277.543V196.32H280.719L280.918 199.086ZM284.739 196.238L284.68 199.367C284.516 199.344 284.317 199.324 284.082 199.309C283.856 199.285 283.649 199.273 283.461 199.273C282.985 199.273 282.571 199.336 282.219 199.461C281.875 199.578 281.586 199.754 281.352 199.988C281.125 200.223 280.953 200.508 280.836 200.844C280.727 201.18 280.664 201.562 280.649 201.992L279.969 201.781C279.969 200.961 280.051 200.207 280.215 199.52C280.379 198.824 280.618 198.219 280.93 197.703C281.25 197.188 281.641 196.789 282.102 196.508C282.563 196.227 283.09 196.086 283.684 196.086C283.871 196.086 284.063 196.102 284.258 196.133C284.453 196.156 284.614 196.191 284.739 196.238ZM285.442 202.789V202.543C285.442 201.613 285.575 200.758 285.84 199.977C286.106 199.188 286.493 198.504 287 197.926C287.508 197.348 288.133 196.898 288.875 196.578C289.618 196.25 290.469 196.086 291.43 196.086C292.391 196.086 293.246 196.25 293.996 196.578C294.746 196.898 295.375 197.348 295.883 197.926C296.399 198.504 296.789 199.188 297.055 199.977C297.321 200.758 297.453 201.613 297.453 202.543V202.789C297.453 203.711 297.321 204.566 297.055 205.355C296.789 206.137 296.399 206.82 295.883 207.406C295.375 207.984 294.75 208.434 294.008 208.754C293.266 209.074 292.414 209.234 291.453 209.234C290.493 209.234 289.637 209.074 288.887 208.754C288.145 208.434 287.516 207.984 287 207.406C286.493 206.82 286.106 206.137 285.84 205.355C285.575 204.566 285.442 203.711 285.442 202.789ZM288.817 202.543V202.789C288.817 203.32 288.864 203.816 288.957 204.277C289.051 204.738 289.2 205.145 289.403 205.496C289.614 205.84 289.887 206.109 290.223 206.305C290.559 206.5 290.969 206.598 291.453 206.598C291.922 206.598 292.325 206.5 292.661 206.305C292.996 206.109 293.266 205.84 293.469 205.496C293.672 205.145 293.821 204.738 293.914 204.277C294.016 203.816 294.067 203.32 294.067 202.789V202.543C294.067 202.027 294.016 201.543 293.914 201.09C293.821 200.629 293.668 200.223 293.457 199.871C293.254 199.512 292.985 199.23 292.649 199.027C292.313 198.824 291.907 198.723 291.43 198.723C290.953 198.723 290.547 198.824 290.211 199.027C289.883 199.23 289.614 199.512 289.403 199.871C289.2 200.223 289.051 200.629 288.957 201.09C288.864 201.543 288.817 202.027 288.817 202.543ZM299.715 196.32H303.102V209.762C303.102 210.699 302.93 211.492 302.586 212.141C302.243 212.789 301.746 213.281 301.098 213.617C300.45 213.953 299.664 214.121 298.743 214.121C298.453 214.121 298.172 214.105 297.899 214.074C297.618 214.043 297.328 213.992 297.032 213.922L297.043 211.332C297.231 211.363 297.414 211.387 297.594 211.402C297.766 211.426 297.942 211.438 298.121 211.438C298.473 211.438 298.766 211.379 299 211.262C299.235 211.145 299.411 210.961 299.528 210.711C299.653 210.469 299.715 210.152 299.715 209.762V196.32ZM299.446 193.016C299.446 192.523 299.618 192.117 299.961 191.797C300.313 191.477 300.774 191.316 301.344 191.316C301.922 191.316 302.383 191.477 302.727 191.797C303.071 192.117 303.243 192.523 303.243 193.016C303.243 193.508 303.071 193.914 302.727 194.234C302.383 194.555 301.922 194.715 301.344 194.715C300.774 194.715 300.313 194.555 299.961 194.234C299.618 193.914 299.446 193.508 299.446 193.016ZM311.621 209.234C310.637 209.234 309.754 209.078 308.973 208.766C308.192 208.445 307.528 208.004 306.981 207.441C306.442 206.879 306.028 206.227 305.739 205.484C305.45 204.734 305.305 203.938 305.305 203.094V202.625C305.305 201.664 305.442 200.785 305.715 199.988C305.989 199.191 306.379 198.5 306.887 197.914C307.403 197.328 308.028 196.879 308.762 196.566C309.496 196.246 310.325 196.086 311.246 196.086C312.145 196.086 312.942 196.234 313.637 196.531C314.332 196.828 314.914 197.25 315.383 197.797C315.86 198.344 316.219 199 316.461 199.766C316.703 200.523 316.825 201.367 316.825 202.297V203.703H306.746V201.453H313.508V201.195C313.508 200.727 313.422 200.309 313.25 199.941C313.086 199.566 312.836 199.27 312.5 199.051C312.164 198.832 311.735 198.723 311.211 198.723C310.766 198.723 310.383 198.82 310.063 199.016C309.743 199.211 309.481 199.484 309.278 199.836C309.082 200.188 308.934 200.602 308.832 201.078C308.739 201.547 308.692 202.062 308.692 202.625V203.094C308.692 203.602 308.762 204.07 308.903 204.5C309.051 204.93 309.258 205.301 309.524 205.613C309.797 205.926 310.125 206.168 310.508 206.34C310.899 206.512 311.34 206.598 311.832 206.598C312.442 206.598 313.008 206.48 313.532 206.246C314.063 206.004 314.52 205.641 314.903 205.156L316.543 206.938C316.278 207.32 315.914 207.688 315.453 208.039C315 208.391 314.453 208.68 313.813 208.906C313.172 209.125 312.442 209.234 311.621 209.234ZM323.985 206.598C324.399 206.598 324.766 206.52 325.086 206.363C325.407 206.199 325.657 205.973 325.836 205.684C326.024 205.387 326.121 205.039 326.129 204.641H329.305C329.297 205.531 329.059 206.324 328.59 207.02C328.121 207.707 327.493 208.25 326.703 208.648C325.914 209.039 325.032 209.234 324.055 209.234C323.071 209.234 322.211 209.07 321.477 208.742C320.75 208.414 320.145 207.961 319.661 207.383C319.176 206.797 318.813 206.117 318.571 205.344C318.328 204.562 318.207 203.727 318.207 202.836V202.496C318.207 201.598 318.328 200.762 318.571 199.988C318.813 199.207 319.176 198.527 319.661 197.949C320.145 197.363 320.75 196.906 321.477 196.578C322.203 196.25 323.055 196.086 324.032 196.086C325.071 196.086 325.981 196.285 326.762 196.684C327.551 197.082 328.168 197.652 328.614 198.395C329.067 199.129 329.297 200 329.305 201.008H326.129C326.121 200.586 326.032 200.203 325.86 199.859C325.696 199.516 325.453 199.242 325.133 199.039C324.821 198.828 324.434 198.723 323.973 198.723C323.481 198.723 323.078 198.828 322.766 199.039C322.453 199.242 322.211 199.523 322.039 199.883C321.868 200.234 321.746 200.637 321.676 201.09C321.614 201.535 321.582 202.004 321.582 202.496V202.836C321.582 203.328 321.614 203.801 321.676 204.254C321.739 204.707 321.856 205.109 322.028 205.461C322.207 205.812 322.453 206.09 322.766 206.293C323.078 206.496 323.485 206.598 323.985 206.598ZM337.473 196.32V198.711H330.09V196.32H337.473ZM331.918 193.191H335.293V205.18C335.293 205.547 335.34 205.828 335.434 206.023C335.536 206.219 335.684 206.355 335.879 206.434C336.075 206.504 336.321 206.539 336.618 206.539C336.828 206.539 337.016 206.531 337.18 206.516C337.352 206.492 337.496 206.469 337.614 206.445L337.625 208.93C337.336 209.023 337.024 209.098 336.688 209.152C336.352 209.207 335.981 209.234 335.575 209.234C334.832 209.234 334.184 209.113 333.629 208.871C333.082 208.621 332.661 208.223 332.364 207.676C332.067 207.129 331.918 206.41 331.918 205.52V193.191ZM346.25 205.496C346.25 205.254 346.18 205.035 346.039 204.84C345.899 204.645 345.637 204.465 345.254 204.301C344.879 204.129 344.336 203.973 343.625 203.832C342.985 203.691 342.387 203.516 341.832 203.305C341.286 203.086 340.809 202.824 340.403 202.52C340.004 202.215 339.692 201.855 339.465 201.441C339.239 201.02 339.125 200.539 339.125 200C339.125 199.469 339.239 198.969 339.465 198.5C339.7 198.031 340.032 197.617 340.461 197.258C340.899 196.891 341.43 196.605 342.055 196.402C342.688 196.191 343.399 196.086 344.188 196.086C345.289 196.086 346.235 196.262 347.024 196.613C347.821 196.965 348.43 197.449 348.852 198.066C349.282 198.676 349.496 199.371 349.496 200.152H346.121C346.121 199.824 346.051 199.531 345.911 199.273C345.778 199.008 345.567 198.801 345.278 198.652C344.996 198.496 344.629 198.418 344.176 198.418C343.801 198.418 343.477 198.484 343.203 198.617C342.93 198.742 342.719 198.914 342.571 199.133C342.43 199.344 342.36 199.578 342.36 199.836C342.36 200.031 342.399 200.207 342.477 200.363C342.563 200.512 342.7 200.648 342.887 200.773C343.075 200.898 343.317 201.016 343.614 201.125C343.918 201.227 344.293 201.32 344.739 201.406C345.653 201.594 346.469 201.84 347.188 202.145C347.907 202.441 348.477 202.848 348.899 203.363C349.321 203.871 349.532 204.539 349.532 205.367C349.532 205.93 349.407 206.445 349.157 206.914C348.907 207.383 348.547 207.793 348.078 208.145C347.61 208.488 347.047 208.758 346.391 208.953C345.743 209.141 345.012 209.234 344.2 209.234C343.02 209.234 342.02 209.023 341.2 208.602C340.387 208.18 339.77 207.645 339.348 206.996C338.934 206.34 338.727 205.668 338.727 204.98H341.926C341.942 205.441 342.059 205.812 342.278 206.094C342.504 206.375 342.789 206.578 343.133 206.703C343.485 206.828 343.864 206.891 344.27 206.891C344.707 206.891 345.071 206.832 345.36 206.715C345.649 206.59 345.868 206.426 346.016 206.223C346.172 206.012 346.25 205.77 346.25 205.496Z"
          fill="url(#paint10_linear_20_86)"
        />
        <rect
          x="258.507"
          y="153"
          width="3.72268"
          height="16.967"
          rx="1"
          fill="url(#paint11_linear_20_86)"
        />
        <rect
          x="270.296"
          y="153"
          width="3.72268"
          height="16.967"
          rx="1"
          fill="url(#paint12_linear_20_86)"
        />
        <rect
          x="282.084"
          y="153"
          width="3.72268"
          height="16.967"
          rx="1"
          fill="url(#paint13_linear_20_86)"
        />
        <rect
          x="294.493"
          y="153"
          width="3.72268"
          height="16.967"
          rx="1"
          fill="url(#paint14_linear_20_86)"
        />
        <rect
          x="307.522"
          y="153"
          width="3.72268"
          height="16.967"
          rx="1"
          fill="url(#paint15_linear_20_86)"
        />
        <rect
          x="319.311"
          y="153"
          width="3.72267"
          height="16.967"
          rx="1"
          fill="url(#paint16_linear_20_86)"
        />
        <rect
          x="331.099"
          y="153"
          width="3.72268"
          height="16.967"
          rx="1"
          fill="url(#paint17_linear_20_86)"
        />
        <rect
          x="343.508"
          y="153"
          width="3.72268"
          height="16.967"
          rx="1"
          fill="url(#paint18_linear_20_86)"
        />
        <rect
          width="3.7227"
          height="16.9669"
          rx="1"
          transform="matrix(-0.999991 -0.00420602 0.00162545 -0.999999 347.837 249)"
          fill="url(#paint19_linear_20_86)"
        />
        <rect
          width="3.7227"
          height="16.9669"
          rx="1"
          transform="matrix(-0.999991 -0.00420602 0.00162545 -0.999999 336.049 248.95)"
          fill="url(#paint20_linear_20_86)"
        />
        <rect
          width="3.7227"
          height="16.9669"
          rx="1"
          transform="matrix(-0.999991 -0.00420602 0.00162545 -0.999999 324.261 248.901)"
          fill="url(#paint21_linear_20_86)"
        />
        <rect
          width="3.7227"
          height="16.9669"
          rx="1"
          transform="matrix(-0.999991 -0.00420602 0.00162545 -0.999999 311.852 248.849)"
          fill="url(#paint22_linear_20_86)"
        />
        <rect
          width="3.7227"
          height="16.9669"
          rx="1"
          transform="matrix(-0.999991 -0.00420602 0.00162545 -0.999999 298.822 248.794)"
          fill="url(#paint23_linear_20_86)"
        />
        <rect
          width="3.7227"
          height="16.9669"
          rx="1"
          transform="matrix(-0.999991 -0.00420602 0.00162545 -0.999999 287.034 248.744)"
          fill="url(#paint24_linear_20_86)"
        />
        <rect
          width="3.7227"
          height="16.9669"
          rx="1"
          transform="matrix(-0.999991 -0.00420602 0.00162545 -0.999999 275.245 248.695)"
          fill="url(#paint25_linear_20_86)"
        />
        <rect
          width="3.7227"
          height="16.9669"
          rx="1"
          transform="matrix(-0.999991 -0.00420602 0.00162545 -0.999999 262.837 248.642)"
          fill="url(#paint26_linear_20_86)"
        />
        <rect
          width="5.98834"
          height="10.5476"
          rx="1"
          transform="matrix(0.00080976 -1 0.999998 0.00209536 223.762 192.922)"
          fill="url(#paint27_linear_20_86)"
        />
        <rect
          width="5.98834"
          height="10.5476"
          rx="1"
          transform="matrix(0.00080976 -1 0.999998 0.00209536 223.762 214.88)"
          fill="url(#paint28_linear_20_86)"
        />
        <rect
          width="7.98445"
          height="10.5476"
          rx="1"
          transform="matrix(-0.000806953 1 -0.999998 -0.00208809 381.362 206.917)"
          fill="url(#paint29_linear_20_86)"
        />
        <rect
          width="7.98445"
          height="10.5476"
          rx="1"
          transform="matrix(-0.000806953 1 -0.999998 -0.00208809 381.362 184.96)"
          fill="url(#paint30_linear_20_86)"
        />
        <path
          d="M516.262 461.614L516.445 189.371M516.445 189.371C459.819 189.512 428.072 189.591 371.447 189.731L516.445 189.371Z"
          stroke="url(#paint31_linear_20_86)"
          stroke-width="2"
        />
        <path
          d="M476.399 462.5L476.399 211.676M476.399 211.676C435.413 211.706 412.433 211.723 371.447 211.753L423.923 211.715L476.399 211.676Z"
          stroke="url(#paint32_linear_20_86)"
          stroke-width="2"
        />
        <path
          d="M181.433 37.8587L274.415 38.4082M274.415 38.4082C273.757 86.6136 273.388 113.64 272.729 161.846L274.415 38.4082Z"
          stroke="url(#paint33_linear_20_86)"
          stroke-width="2"
        />
        <path
          d="M193.13 69.8504L261.982 70.4005M261.982 70.4005C261.539 106.1 261.291 126.116 260.848 161.815L261.415 116.108L261.982 70.4005Z"
          stroke="url(#paint34_linear_20_86)"
          stroke-width="2"
        />
        <path
          d="M424.55 37.8587L331.568 38.4082M331.568 38.4082C332.226 86.6136 332.596 113.64 333.254 161.846L331.568 38.4082Z"
          stroke="url(#paint35_linear_20_86)"
          stroke-width="2"
        />
        <path
          d="M412.854 69.8504L344.001 70.4005M344.001 70.4005C344.444 106.1 344.693 126.116 345.136 161.815L344.568 116.108L344.001 70.4005Z"
          stroke="url(#paint36_linear_20_86)"
          stroke-width="2"
        />
        <defs>
          <linearGradient
            class="linear-control"
            id="paint0_linear_20_86"
            x1="231.622"
            y1="164.324"
            x2="1.00656"
            y2="288.118"
            gradientUnits="userSpaceOnUse"
          >
            <stop offset="0.03125" stop-color="#525252" stop-opacity="0" />
            <stop offset="0.479167" stop-color="#DA2F0A" />
            <stop offset="0.649196" stop-color="#1C4ECE" />
            <stop offset="0.989583" stop-color="#1C4ECE" />
          </linearGradient>
          <linearGradient
            class="linear-control"
            id="paint1_linear_20_86"
            x1="237.734"
            y1="192.922"
            x2="66.6799"
            y2="284.741"
            gradientUnits="userSpaceOnUse"
          >
            <stop offset="0.03125" stop-color="#525252" stop-opacity="0" />
            <stop offset="0.479167" stop-color="#DA2F0A" />
            <stop offset="0.649196" stop-color="#1C4ECE" />
            <stop offset="0.989583" stop-color="#1C4ECE" />
          </linearGradient>
          <linearGradient
            class="linear-control"
            id="paint2_linear_20_86"
            x1="261.636"
            y1="215.698"
            x2="38.5028"
            y2="349.636"
            gradientUnits="userSpaceOnUse"
          >
            <stop offset="0.03125" stop-color="#525252" stop-opacity="0" />
            <stop offset="0.479167" stop-color="#DA2F0A" />
            <stop offset="0.649196" stop-color="#1C4ECE" />
            <stop offset="0.989583" stop-color="#1C4ECE" />
          </linearGradient>
          <linearGradient
            class="linear-control"
            id="paint3_linear_20_86"
            x1="274.274"
            y1="215.698"
            x2="51.1405"
            y2="349.636"
            gradientUnits="userSpaceOnUse"
          >
            <stop offset="0.03125" stop-color="#525252" stop-opacity="0" />
            <stop offset="0.479167" stop-color="#DA2F0A" />
            <stop offset="0.649196" stop-color="#1C4ECE" />
            <stop offset="0.989583" stop-color="#1C4ECE" />
          </linearGradient>
          <linearGradient
            class="linear-control"
            id="paint4_linear_20_86"
            x1="298.063"
            y1="215.698"
            x2="74.9292"
            y2="349.636"
            gradientUnits="userSpaceOnUse"
          >
            <stop offset="0.03125" stop-color="#525252" stop-opacity="0" />
            <stop offset="0.479167" stop-color="#DA2F0A" />
            <stop offset="0.649196" stop-color="#1C4ECE" />
            <stop offset="0.989583" stop-color="#1C4ECE" />
          </linearGradient>
          <linearGradient
            class="linear-control"
            id="paint5_linear_20_86"
            x1="285.425"
            y1="215.698"
            x2="62.2915"
            y2="349.636"
            gradientUnits="userSpaceOnUse"
          >
            <stop offset="0.03125" stop-color="#525252" stop-opacity="0" />
            <stop offset="0.479167" stop-color="#DA2F0A" />
            <stop offset="0.649196" stop-color="#1C4ECE" />
            <stop offset="0.989583" stop-color="#1C4ECE" />
          </linearGradient>
          <linearGradient
            class="linear-control"
            id="paint6_linear_20_86"
            x1="322.595"
            y1="215.698"
            x2="99.4612"
            y2="349.636"
            gradientUnits="userSpaceOnUse"
          >
            <stop offset="0.03125" stop-color="#525252" stop-opacity="0" />
            <stop offset="0.479167" stop-color="#DA2F0A" />
            <stop offset="0.649196" stop-color="#1C4ECE" />
            <stop offset="0.989583" stop-color="#1C4ECE" />
          </linearGradient>
          <linearGradient
            class="linear-control"
            id="paint7_linear_20_86"
            x1="310.7"
            y1="215.698"
            x2="87.5669"
            y2="349.636"
            gradientUnits="userSpaceOnUse"
          >
            <stop offset="0.03125" stop-color="#525252" stop-opacity="0" />
            <stop offset="0.479167" stop-color="#DA2F0A" />
            <stop offset="0.649196" stop-color="#1C4ECE" />
            <stop offset="0.989583" stop-color="#1C4ECE" />
          </linearGradient>
          <linearGradient
            class="linear-control"
            id="paint8_linear_20_86"
            x1="334.489"
            y1="215.698"
            x2="111.356"
            y2="349.636"
            gradientUnits="userSpaceOnUse"
          >
            <stop offset="0.03125" stop-color="#525252" stop-opacity="0" />
            <stop offset="0.479167" stop-color="#DA2F0A" />
            <stop offset="0.649196" stop-color="#1C4ECE" />
            <stop offset="0.989583" stop-color="#1C4ECE" />
          </linearGradient>
          <linearGradient
            class="linear-control"
            id="paint9_linear_20_86"
            x1="346.383"
            y1="215.698"
            x2="123.25"
            y2="349.636"
            gradientUnits="userSpaceOnUse"
          >
            <stop offset="0.03125" stop-color="#525252" stop-opacity="0" />
            <stop offset="0.479167" stop-color="#DA2F0A" />
            <stop offset="0.649196" stop-color="#1C4ECE" />
            <stop offset="0.989583" stop-color="#1C4ECE" />
          </linearGradient>
          <linearGradient
            class="linear-control"
            id="paint10_linear_20_86"
            x1="313.262"
            y1="201"
            x2="313.262"
            y2="215"
            gradientUnits="userSpaceOnUse"
          >
            <stop stop-color="#868686" />
            <stop offset="1" stop-color="#868686" stop-opacity="0" />
          </linearGradient>
          <linearGradient
            id="paint11_linear_20_86"
            x1="260.368"
            y1="153"
            x2="260.368"
            y2="169.967"
            gradientUnits="userSpaceOnUse"
          >
            <stop stop-color="#4F4848" />
            <stop
              offset="0.442708"
              stop-color="#4D4141"
              stop-opacity="0.557292"
            />
            <stop offset="1" stop-color="#D9D9D9" stop-opacity="0" />
          </linearGradient>
          <linearGradient
            id="paint12_linear_20_86"
            x1="272.157"
            y1="153"
            x2="272.157"
            y2="169.967"
            gradientUnits="userSpaceOnUse"
          >
            <stop stop-color="#4F4848" />
            <stop
              offset="0.442708"
              stop-color="#4D4141"
              stop-opacity="0.557292"
            />
            <stop offset="1" stop-color="#D9D9D9" stop-opacity="0" />
          </linearGradient>
          <linearGradient
            id="paint13_linear_20_86"
            x1="283.945"
            y1="153"
            x2="283.945"
            y2="169.967"
            gradientUnits="userSpaceOnUse"
          >
            <stop stop-color="#4F4848" />
            <stop
              offset="0.442708"
              stop-color="#4D4141"
              stop-opacity="0.557292"
            />
            <stop offset="1" stop-color="#D9D9D9" stop-opacity="0" />
          </linearGradient>
          <linearGradient
            id="paint14_linear_20_86"
            x1="296.354"
            y1="153"
            x2="296.354"
            y2="169.967"
            gradientUnits="userSpaceOnUse"
          >
            <stop stop-color="#4F4848" />
            <stop
              offset="0.442708"
              stop-color="#4D4141"
              stop-opacity="0.557292"
            />
            <stop offset="1" stop-color="#D9D9D9" stop-opacity="0" />
          </linearGradient>
          <linearGradient
            id="paint15_linear_20_86"
            x1="309.384"
            y1="153"
            x2="309.384"
            y2="169.967"
            gradientUnits="userSpaceOnUse"
          >
            <stop stop-color="#4F4848" />
            <stop
              offset="0.442708"
              stop-color="#4D4141"
              stop-opacity="0.557292"
            />
            <stop offset="1" stop-color="#D9D9D9" stop-opacity="0" />
          </linearGradient>
          <linearGradient
            id="paint16_linear_20_86"
            x1="321.172"
            y1="153"
            x2="321.172"
            y2="169.967"
            gradientUnits="userSpaceOnUse"
          >
            <stop stop-color="#4F4848" />
            <stop
              offset="0.442708"
              stop-color="#4D4141"
              stop-opacity="0.557292"
            />
            <stop offset="1" stop-color="#D9D9D9" stop-opacity="0" />
          </linearGradient>
          <linearGradient
            id="paint17_linear_20_86"
            x1="332.961"
            y1="153"
            x2="332.961"
            y2="169.967"
            gradientUnits="userSpaceOnUse"
          >
            <stop stop-color="#4F4848" />
            <stop
              offset="0.442708"
              stop-color="#4D4141"
              stop-opacity="0.557292"
            />
            <stop offset="1" stop-color="#D9D9D9" stop-opacity="0" />
          </linearGradient>
          <linearGradient
            id="paint18_linear_20_86"
            x1="345.37"
            y1="153"
            x2="345.37"
            y2="169.967"
            gradientUnits="userSpaceOnUse"
          >
            <stop stop-color="#4F4848" />
            <stop
              offset="0.442708"
              stop-color="#4D4141"
              stop-opacity="0.557292"
            />
            <stop offset="1" stop-color="#D9D9D9" stop-opacity="0" />
          </linearGradient>
          <linearGradient
            id="paint19_linear_20_86"
            x1="1.86135"
            y1="0"
            x2="1.86135"
            y2="16.9669"
            gradientUnits="userSpaceOnUse"
          >
            <stop stop-color="#4F4848" />
            <stop
              offset="0.442708"
              stop-color="#4D4141"
              stop-opacity="0.557292"
            />
            <stop offset="1" stop-color="#D9D9D9" stop-opacity="0" />
          </linearGradient>
          <linearGradient
            id="paint20_linear_20_86"
            x1="1.86135"
            y1="0"
            x2="1.86135"
            y2="16.9669"
            gradientUnits="userSpaceOnUse"
          >
            <stop stop-color="#4F4848" />
            <stop
              offset="0.442708"
              stop-color="#4D4141"
              stop-opacity="0.557292"
            />
            <stop offset="1" stop-color="#D9D9D9" stop-opacity="0" />
          </linearGradient>
          <linearGradient
            id="paint21_linear_20_86"
            x1="1.86135"
            y1="0"
            x2="1.86135"
            y2="16.9669"
            gradientUnits="userSpaceOnUse"
          >
            <stop stop-color="#4F4848" />
            <stop
              offset="0.442708"
              stop-color="#4D4141"
              stop-opacity="0.557292"
            />
            <stop offset="1" stop-color="#D9D9D9" stop-opacity="0" />
          </linearGradient>
          <linearGradient
            id="paint22_linear_20_86"
            x1="1.86135"
            y1="0"
            x2="1.86135"
            y2="16.9669"
            gradientUnits="userSpaceOnUse"
          >
            <stop stop-color="#4F4848" />
            <stop
              offset="0.442708"
              stop-color="#4D4141"
              stop-opacity="0.557292"
            />
            <stop offset="1" stop-color="#D9D9D9" stop-opacity="0" />
          </linearGradient>
          <linearGradient
            id="paint23_linear_20_86"
            x1="1.86135"
            y1="0"
            x2="1.86135"
            y2="16.9669"
            gradientUnits="userSpaceOnUse"
          >
            <stop stop-color="#4F4848" />
            <stop
              offset="0.442708"
              stop-color="#4D4141"
              stop-opacity="0.557292"
            />
            <stop offset="1" stop-color="#D9D9D9" stop-opacity="0" />
          </linearGradient>
          <linearGradient
            id="paint24_linear_20_86"
            x1="1.86135"
            y1="0"
            x2="1.86135"
            y2="16.9669"
            gradientUnits="userSpaceOnUse"
          >
            <stop stop-color="#4F4848" />
            <stop
              offset="0.442708"
              stop-color="#4D4141"
              stop-opacity="0.557292"
            />
            <stop offset="1" stop-color="#D9D9D9" stop-opacity="0" />
          </linearGradient>
          <linearGradient
            id="paint25_linear_20_86"
            x1="1.86135"
            y1="0"
            x2="1.86135"
            y2="16.9669"
            gradientUnits="userSpaceOnUse"
          >
            <stop stop-color="#4F4848" />
            <stop
              offset="0.442708"
              stop-color="#4D4141"
              stop-opacity="0.557292"
            />
            <stop offset="1" stop-color="#D9D9D9" stop-opacity="0" />
          </linearGradient>
          <linearGradient
            id="paint26_linear_20_86"
            x1="1.86135"
            y1="0"
            x2="1.86135"
            y2="16.9669"
            gradientUnits="userSpaceOnUse"
          >
            <stop stop-color="#4F4848" />
            <stop
              offset="0.442708"
              stop-color="#4D4141"
              stop-opacity="0.557292"
            />
            <stop offset="1" stop-color="#D9D9D9" stop-opacity="0" />
          </linearGradient>
          <linearGradient
            id="paint27_linear_20_86"
            x1="2.99417"
            y1="0"
            x2="2.99417"
            y2="10.5476"
            gradientUnits="userSpaceOnUse"
          >
            <stop stop-color="#4F4848" />
            <stop
              offset="0.442708"
              stop-color="#4D4141"
              stop-opacity="0.557292"
            />
            <stop offset="1" stop-color="#D9D9D9" stop-opacity="0" />
          </linearGradient>
          <linearGradient
            id="paint28_linear_20_86"
            x1="2.99417"
            y1="0"
            x2="2.99417"
            y2="10.5476"
            gradientUnits="userSpaceOnUse"
          >
            <stop stop-color="#4F4848" />
            <stop
              offset="0.442708"
              stop-color="#4D4141"
              stop-opacity="0.557292"
            />
            <stop offset="1" stop-color="#D9D9D9" stop-opacity="0" />
          </linearGradient>
          <linearGradient
            id="paint29_linear_20_86"
            x1="3.99223"
            y1="0"
            x2="3.99223"
            y2="10.5476"
            gradientUnits="userSpaceOnUse"
          >
            <stop stop-color="#4F4848" />
            <stop
              offset="0.442708"
              stop-color="#4D4141"
              stop-opacity="0.557292"
            />
            <stop offset="1" stop-color="#D9D9D9" stop-opacity="0" />
          </linearGradient>
          <linearGradient
            id="paint30_linear_20_86"
            x1="3.99222"
            y1="0"
            x2="3.99222"
            y2="10.5476"
            gradientUnits="userSpaceOnUse"
          >
            <stop stop-color="#4F4848" />
            <stop
              offset="0.442708"
              stop-color="#4D4141"
              stop-opacity="0.557292"
            />
            <stop offset="1" stop-color="#D9D9D9" stop-opacity="0" />
          </linearGradient>
          <linearGradient
            class="linear-control"
            id="paint31_linear_20_86"
            x1="365.24"
            y1="163.729"
            x2="592.472"
            y2="277.841"
            gradientUnits="userSpaceOnUse"
          >
            <stop offset="0.03125" stop-color="#525252" stop-opacity="0" />
            <stop offset="0.479167" stop-color="#DA2F0A" />
            <stop offset="0.649196" stop-color="#1C4ECE" />
            <stop offset="0.989583" stop-color="#1C4ECE" />
          </linearGradient>
          <linearGradient
            class="linear-control"
            id="paint32_linear_20_86"
            x1="366.947"
            y1="192.921"
            x2="531.569"
            y2="275.59"
            gradientUnits="userSpaceOnUse"
          >
            <stop offset="0.03125" stop-color="#525252" stop-opacity="0" />
            <stop offset="0.479167" stop-color="#DA2F0A" />
            <stop offset="0.649196" stop-color="#1C4ECE" />
            <stop offset="0.989583" stop-color="#1C4ECE" />
          </linearGradient>
          <linearGradient
            class="linear-control"
            id="paint33_linear_20_86"
            x1="281.543"
            y1="167.197"
            x2="164.715"
            y2="71.8086"
            gradientUnits="userSpaceOnUse"
          >
            <stop offset="0.03125" stop-color="#525252" stop-opacity="0" />
            <stop offset="0.479167" stop-color="#DA2F0A" />
            <stop offset="0.649196" stop-color="#1C4ECE" />
            <stop offset="0.989583" stop-color="#1C4ECE" />
          </linearGradient>
          <linearGradient
            class="linear-control"
            id="paint34_linear_20_86"
            x1="267.379"
            y1="165.792"
            x2="180.725"
            y2="95.0377"
            gradientUnits="userSpaceOnUse"
          >
            <stop offset="0.03125" stop-color="#525252" stop-opacity="0" />
            <stop offset="0.479167" stop-color="#DA2F0A" />
            <stop offset="0.649196" stop-color="#1C4ECE" />
            <stop offset="0.989583" stop-color="#1C4ECE" />
          </linearGradient>
          <linearGradient
            class="linear-control"
            id="paint35_linear_20_86"
            x1="324.44"
            y1="167.197"
            x2="441.268"
            y2="71.8086"
            gradientUnits="userSpaceOnUse"
          >
            <stop offset="0.03125" stop-color="#525252" stop-opacity="0" />
            <stop offset="0.479167" stop-color="#DA2F0A" />
            <stop offset="0.649196" stop-color="#1C4ECE" />
            <stop offset="0.989583" stop-color="#1C4ECE" />
          </linearGradient>
          <linearGradient
            class="linear-control"
            id="paint36_linear_20_86"
            x1="338.604"
            y1="165.792"
            x2="425.259"
            y2="95.0377"
            gradientUnits="userSpaceOnUse"
          >
            <stop offset="0.03125" stop-color="#525252" stop-opacity="0" />
            <stop offset="0.479167" stop-color="#DA2F0A" />
            <stop offset="0.649196" stop-color="#1C4ECE" />
            <stop offset="0.989583" stop-color="#1C4ECE" />
          </linearGradient>
        </defs>
      </svg>

