 <svg width="587" height="773" viewBox="0 0 587 773" fill="none" xmlns="http://www.w3.org/2000/svg">
            <path
                d="M261.674 772L260.932 528.123M260.932 528.123C261.222 428.101 261.385 372.022 261.675 272L261.304 400.062L260.932 528.123Z"
                stroke="url(#paint0_linear_22_109)" stroke-width="2" />
            <path
                d="M274.311 772L273.57 528.123M273.57 528.123C273.86 428.101 274.023 372.022 274.313 272L273.941 400.062L273.57 528.123Z"
                stroke="url(#paint1_linear_22_109)" stroke-width="2" />
            <path
                d="M298.1 772L297.358 528.123M297.358 528.123C297.649 428.101 297.811 372.022 298.102 272L297.73 400.062L297.358 528.123Z"
                stroke="url(#paint2_linear_22_109)" stroke-width="2" />
            <path
                d="M285.462 772L284.721 528.123M284.721 528.123C285.011 428.101 285.174 372.022 285.464 272L285.092 400.062L284.721 528.123Z"
                stroke="url(#paint3_linear_22_109)" stroke-width="2" />
            <path
                d="M322.632 772L321.89 528.123M321.89 528.123C322.181 428.101 322.343 372.022 322.634 272L322.262 400.062L321.89 528.123Z"
                stroke="url(#paint4_linear_22_109)" stroke-width="2" />
            <path
                d="M310.738 772L309.996 528.123M309.996 528.123C310.286 428.101 310.449 372.022 310.739 272L310.368 400.062L309.996 528.123Z"
                stroke="url(#paint5_linear_22_109)" stroke-width="2" />
            <path
                d="M334.526 772L333.785 528.123M333.785 528.123C334.075 428.101 334.238 372.022 334.528 272L334.156 400.062L333.785 528.123Z"
                stroke="url(#paint6_linear_22_109)" stroke-width="2" />
            <path
                d="M346.421 772L345.679 528.123M345.679 528.123C345.969 428.101 346.132 372.022 346.422 272L346.051 400.062L345.679 528.123Z"
                stroke="url(#paint7_linear_22_109)" stroke-width="2" />
            <rect x="234.31" y="189.971" width="138.36" height="64.8737" rx="8" fill="#252525" />
            <path
                d="M268.93 224.918H264.582V222.176H268.93C269.602 222.176 270.149 222.066 270.571 221.848C270.993 221.621 271.301 221.309 271.497 220.91C271.692 220.512 271.789 220.062 271.789 219.562C271.789 219.055 271.692 218.582 271.497 218.145C271.301 217.707 270.993 217.355 270.571 217.09C270.149 216.824 269.602 216.691 268.93 216.691H265.801V231H262.286V213.938H268.93C270.266 213.938 271.411 214.18 272.364 214.664C273.325 215.141 274.059 215.801 274.567 216.645C275.075 217.488 275.329 218.453 275.329 219.539C275.329 220.641 275.075 221.594 274.567 222.398C274.059 223.203 273.325 223.824 272.364 224.262C271.411 224.699 270.266 224.918 268.93 224.918ZM280.918 221.086V231H277.543V218.32H280.719L280.918 221.086ZM284.739 218.238L284.68 221.367C284.516 221.344 284.317 221.324 284.082 221.309C283.856 221.285 283.649 221.273 283.461 221.273C282.985 221.273 282.571 221.336 282.219 221.461C281.875 221.578 281.586 221.754 281.352 221.988C281.125 222.223 280.954 222.508 280.836 222.844C280.727 223.18 280.664 223.562 280.649 223.992L279.969 223.781C279.969 222.961 280.051 222.207 280.215 221.52C280.379 220.824 280.618 220.219 280.93 219.703C281.25 219.188 281.641 218.789 282.102 218.508C282.563 218.227 283.09 218.086 283.684 218.086C283.872 218.086 284.063 218.102 284.258 218.133C284.454 218.156 284.614 218.191 284.739 218.238ZM285.442 224.789V224.543C285.442 223.613 285.575 222.758 285.84 221.977C286.106 221.188 286.493 220.504 287 219.926C287.508 219.348 288.133 218.898 288.875 218.578C289.618 218.25 290.469 218.086 291.43 218.086C292.391 218.086 293.247 218.25 293.997 218.578C294.747 218.898 295.375 219.348 295.883 219.926C296.399 220.504 296.789 221.188 297.055 221.977C297.321 222.758 297.454 223.613 297.454 224.543V224.789C297.454 225.711 297.321 226.566 297.055 227.355C296.789 228.137 296.399 228.82 295.883 229.406C295.375 229.984 294.75 230.434 294.008 230.754C293.266 231.074 292.414 231.234 291.454 231.234C290.493 231.234 289.637 231.074 288.887 230.754C288.145 230.434 287.516 229.984 287 229.406C286.493 228.82 286.106 228.137 285.84 227.355C285.575 226.566 285.442 225.711 285.442 224.789ZM288.817 224.543V224.789C288.817 225.32 288.864 225.816 288.957 226.277C289.051 226.738 289.2 227.145 289.403 227.496C289.614 227.84 289.887 228.109 290.223 228.305C290.559 228.5 290.969 228.598 291.454 228.598C291.922 228.598 292.325 228.5 292.661 228.305C292.997 228.109 293.266 227.84 293.469 227.496C293.672 227.145 293.821 226.738 293.914 226.277C294.016 225.816 294.067 225.32 294.067 224.789V224.543C294.067 224.027 294.016 223.543 293.914 223.09C293.821 222.629 293.668 222.223 293.457 221.871C293.254 221.512 292.985 221.23 292.649 221.027C292.313 220.824 291.907 220.723 291.43 220.723C290.954 220.723 290.547 220.824 290.211 221.027C289.883 221.23 289.614 221.512 289.403 221.871C289.2 222.223 289.051 222.629 288.957 223.09C288.864 223.543 288.817 224.027 288.817 224.543ZM299.715 218.32H303.102V231.762C303.102 232.699 302.93 233.492 302.586 234.141C302.243 234.789 301.747 235.281 301.098 235.617C300.45 235.953 299.664 236.121 298.743 236.121C298.454 236.121 298.172 236.105 297.899 236.074C297.618 236.043 297.329 235.992 297.032 235.922L297.043 233.332C297.231 233.363 297.414 233.387 297.594 233.402C297.766 233.426 297.942 233.438 298.122 233.438C298.473 233.438 298.766 233.379 299 233.262C299.235 233.145 299.411 232.961 299.528 232.711C299.653 232.469 299.715 232.152 299.715 231.762V218.32ZM299.446 215.016C299.446 214.523 299.618 214.117 299.961 213.797C300.313 213.477 300.774 213.316 301.344 213.316C301.922 213.316 302.383 213.477 302.727 213.797C303.071 214.117 303.243 214.523 303.243 215.016C303.243 215.508 303.071 215.914 302.727 216.234C302.383 216.555 301.922 216.715 301.344 216.715C300.774 216.715 300.313 216.555 299.961 216.234C299.618 215.914 299.446 215.508 299.446 215.016ZM311.622 231.234C310.637 231.234 309.754 231.078 308.973 230.766C308.192 230.445 307.528 230.004 306.981 229.441C306.442 228.879 306.028 228.227 305.739 227.484C305.45 226.734 305.305 225.938 305.305 225.094V224.625C305.305 223.664 305.442 222.785 305.715 221.988C305.989 221.191 306.379 220.5 306.887 219.914C307.403 219.328 308.028 218.879 308.762 218.566C309.497 218.246 310.325 218.086 311.247 218.086C312.145 218.086 312.942 218.234 313.637 218.531C314.332 218.828 314.914 219.25 315.383 219.797C315.86 220.344 316.219 221 316.461 221.766C316.704 222.523 316.825 223.367 316.825 224.297V225.703H306.747V223.453H313.508V223.195C313.508 222.727 313.422 222.309 313.25 221.941C313.086 221.566 312.836 221.27 312.5 221.051C312.164 220.832 311.735 220.723 311.211 220.723C310.766 220.723 310.383 220.82 310.063 221.016C309.743 221.211 309.481 221.484 309.278 221.836C309.082 222.188 308.934 222.602 308.832 223.078C308.739 223.547 308.692 224.062 308.692 224.625V225.094C308.692 225.602 308.762 226.07 308.903 226.5C309.051 226.93 309.258 227.301 309.524 227.613C309.797 227.926 310.125 228.168 310.508 228.34C310.899 228.512 311.34 228.598 311.832 228.598C312.442 228.598 313.008 228.48 313.532 228.246C314.063 228.004 314.52 227.641 314.903 227.156L316.543 228.938C316.278 229.32 315.914 229.688 315.454 230.039C315 230.391 314.454 230.68 313.813 230.906C313.172 231.125 312.442 231.234 311.622 231.234ZM323.985 228.598C324.399 228.598 324.766 228.52 325.086 228.363C325.407 228.199 325.657 227.973 325.836 227.684C326.024 227.387 326.122 227.039 326.129 226.641H329.305C329.297 227.531 329.059 228.324 328.59 229.02C328.122 229.707 327.493 230.25 326.704 230.648C325.914 231.039 325.032 231.234 324.055 231.234C323.071 231.234 322.211 231.07 321.477 230.742C320.75 230.414 320.145 229.961 319.661 229.383C319.176 228.797 318.813 228.117 318.571 227.344C318.329 226.562 318.207 225.727 318.207 224.836V224.496C318.207 223.598 318.329 222.762 318.571 221.988C318.813 221.207 319.176 220.527 319.661 219.949C320.145 219.363 320.75 218.906 321.477 218.578C322.204 218.25 323.055 218.086 324.032 218.086C325.071 218.086 325.981 218.285 326.762 218.684C327.551 219.082 328.168 219.652 328.614 220.395C329.067 221.129 329.297 222 329.305 223.008H326.129C326.122 222.586 326.032 222.203 325.86 221.859C325.696 221.516 325.454 221.242 325.133 221.039C324.821 220.828 324.434 220.723 323.973 220.723C323.481 220.723 323.079 220.828 322.766 221.039C322.454 221.242 322.211 221.523 322.039 221.883C321.868 222.234 321.747 222.637 321.676 223.09C321.614 223.535 321.582 224.004 321.582 224.496V224.836C321.582 225.328 321.614 225.801 321.676 226.254C321.739 226.707 321.856 227.109 322.028 227.461C322.207 227.812 322.454 228.09 322.766 228.293C323.079 228.496 323.485 228.598 323.985 228.598ZM337.473 218.32V220.711H330.09V218.32H337.473ZM331.918 215.191H335.293V227.18C335.293 227.547 335.34 227.828 335.434 228.023C335.536 228.219 335.684 228.355 335.879 228.434C336.075 228.504 336.321 228.539 336.618 228.539C336.829 228.539 337.016 228.531 337.18 228.516C337.352 228.492 337.497 228.469 337.614 228.445L337.625 230.93C337.336 231.023 337.024 231.098 336.688 231.152C336.352 231.207 335.981 231.234 335.575 231.234C334.832 231.234 334.184 231.113 333.629 230.871C333.082 230.621 332.661 230.223 332.364 229.676C332.067 229.129 331.918 228.41 331.918 227.52V215.191ZM346.25 227.496C346.25 227.254 346.18 227.035 346.039 226.84C345.899 226.645 345.637 226.465 345.254 226.301C344.879 226.129 344.336 225.973 343.625 225.832C342.985 225.691 342.387 225.516 341.832 225.305C341.286 225.086 340.809 224.824 340.403 224.52C340.004 224.215 339.692 223.855 339.465 223.441C339.239 223.02 339.125 222.539 339.125 222C339.125 221.469 339.239 220.969 339.465 220.5C339.7 220.031 340.032 219.617 340.461 219.258C340.899 218.891 341.43 218.605 342.055 218.402C342.688 218.191 343.399 218.086 344.188 218.086C345.289 218.086 346.235 218.262 347.024 218.613C347.821 218.965 348.43 219.449 348.852 220.066C349.282 220.676 349.497 221.371 349.497 222.152H346.122C346.122 221.824 346.051 221.531 345.911 221.273C345.778 221.008 345.567 220.801 345.278 220.652C344.997 220.496 344.629 220.418 344.176 220.418C343.801 220.418 343.477 220.484 343.204 220.617C342.93 220.742 342.719 220.914 342.571 221.133C342.43 221.344 342.36 221.578 342.36 221.836C342.36 222.031 342.399 222.207 342.477 222.363C342.563 222.512 342.7 222.648 342.887 222.773C343.075 222.898 343.317 223.016 343.614 223.125C343.918 223.227 344.293 223.32 344.739 223.406C345.653 223.594 346.469 223.84 347.188 224.145C347.907 224.441 348.477 224.848 348.899 225.363C349.321 225.871 349.532 226.539 349.532 227.367C349.532 227.93 349.407 228.445 349.157 228.914C348.907 229.383 348.547 229.793 348.079 230.145C347.61 230.488 347.047 230.758 346.391 230.953C345.743 231.141 345.012 231.234 344.2 231.234C343.02 231.234 342.02 231.023 341.2 230.602C340.387 230.18 339.77 229.645 339.348 228.996C338.934 228.34 338.727 227.668 338.727 226.98H341.926C341.942 227.441 342.059 227.812 342.278 228.094C342.504 228.375 342.789 228.578 343.133 228.703C343.485 228.828 343.864 228.891 344.27 228.891C344.707 228.891 345.071 228.832 345.36 228.715C345.649 228.59 345.868 228.426 346.016 228.223C346.172 228.012 346.25 227.77 346.25 227.496Z"
                fill="url(#paint8_linear_22_109)" />
            <rect x="258.507" y="175" width="3.72268" height="16.967" rx="1" fill="url(#paint9_linear_22_109)" />
            <rect x="270.296" y="175" width="3.72268" height="16.967" rx="1" fill="url(#paint10_linear_22_109)" />
            <rect x="282.084" y="175" width="3.72268" height="16.967" rx="1" fill="url(#paint11_linear_22_109)" />
            <rect x="294.493" y="175" width="3.72268" height="16.967" rx="1" fill="url(#paint12_linear_22_109)" />
            <rect x="307.522" y="175" width="3.72268" height="16.967" rx="1" fill="url(#paint13_linear_22_109)" />
            <rect x="319.311" y="175" width="3.72267" height="16.967" rx="1" fill="url(#paint14_linear_22_109)" />
            <rect x="331.099" y="175" width="3.72268" height="16.967" rx="1" fill="url(#paint15_linear_22_109)" />
            <rect x="343.508" y="175" width="3.72268" height="16.967" rx="1" fill="url(#paint16_linear_22_109)" />
            <rect width="3.7227" height="16.9669" rx="1"
                transform="matrix(-0.999991 -0.00420602 0.00162545 -0.999999 347.837 271)"
                fill="url(#paint17_linear_22_109)" />
            <rect width="3.7227" height="16.9669" rx="1"
                transform="matrix(-0.999991 -0.00420602 0.00162545 -0.999999 336.049 270.95)"
                fill="url(#paint18_linear_22_109)" />
            <rect width="3.7227" height="16.9669" rx="1"
                transform="matrix(-0.999991 -0.00420602 0.00162545 -0.999999 324.261 270.901)"
                fill="url(#paint19_linear_22_109)" />
            <rect width="3.7227" height="16.9669" rx="1"
                transform="matrix(-0.999991 -0.00420602 0.00162545 -0.999999 311.852 270.849)"
                fill="url(#paint20_linear_22_109)" />
            <rect width="3.7227" height="16.9669" rx="1"
                transform="matrix(-0.999991 -0.00420602 0.00162545 -0.999999 298.822 270.794)"
                fill="url(#paint21_linear_22_109)" />
            <rect width="3.7227" height="16.9669" rx="1"
                transform="matrix(-0.999991 -0.00420602 0.00162545 -0.999999 287.034 270.744)"
                fill="url(#paint22_linear_22_109)" />
            <rect width="3.7227" height="16.9669" rx="1"
                transform="matrix(-0.999991 -0.00420602 0.00162545 -0.999999 275.246 270.695)"
                fill="url(#paint23_linear_22_109)" />
            <rect width="3.7227" height="16.9669" rx="1"
                transform="matrix(-0.999991 -0.00420602 0.00162545 -0.999999 262.837 270.642)"
                fill="url(#paint24_linear_22_109)" />
            <rect width="5.98834" height="10.5476" rx="1"
                transform="matrix(0.00080976 -1 0.999998 0.00209536 223.762 214.922)"
                fill="url(#paint25_linear_22_109)" />
            <rect width="5.98834" height="10.5476" rx="1"
                transform="matrix(0.00080976 -1 0.999998 0.00209536 223.762 236.88)"
                fill="url(#paint26_linear_22_109)" />
            <rect width="7.98445" height="10.5476" rx="1"
                transform="matrix(-0.000806953 1 -0.999998 -0.00208809 381.362 228.917)"
                fill="url(#paint27_linear_22_109)" />
            <rect width="7.98445" height="10.5476" rx="1"
                transform="matrix(-0.000806953 1 -0.999998 -0.00208809 381.362 206.96)"
                fill="url(#paint28_linear_22_109)" />
            <path
                d="M181.433 59.8587L274.415 60.4082M274.415 60.4082C273.757 108.614 273.388 135.64 272.729 183.846L274.415 60.4082Z"
                stroke="url(#paint29_linear_22_109)" stroke-width="2" />
            <path
                d="M193.13 91.8504L261.982 92.4005M261.982 92.4005C261.539 128.1 261.291 148.116 260.848 183.815L261.415 138.108L261.982 92.4005Z"
                stroke="url(#paint30_linear_22_109)" stroke-width="2" />
            <path
                d="M424.55 59.8587L331.568 60.4082M331.568 60.4082C332.226 108.614 332.596 135.64 333.254 183.846L331.568 60.4082Z"
                stroke="url(#paint31_linear_22_109)" stroke-width="2" />
            <path
                d="M412.854 91.8504L344.001 92.4005M344.001 92.4005C344.444 128.1 344.693 148.116 345.136 183.815L344.568 138.108L344.001 92.4005Z"
                stroke="url(#paint32_linear_22_109)" stroke-width="2" />
            <defs>
                <linearGradient 
                class="linear-control"
                id="paint0_linear_22_109" x1="261.636" y1="237.698" x2="38.5028" y2="371.636"
                    gradientUnits="userSpaceOnUse">
                    <stop offset="0.03125" stop-color="#525252" stop-opacity="0" />
                    <stop offset="0.479167" stop-color="#DA2F0A" />
                    <stop offset="0.649196" stop-color="#1C4ECE" />
                    <stop offset="0.989583" stop-color="#1C4ECE" />
                </linearGradient>
                <linearGradient 
                class="linear-control"
                id="paint1_linear_22_109" x1="274.274" y1="237.698" x2="51.1405" y2="371.636"
                    gradientUnits="userSpaceOnUse">
                    <stop offset="0.03125" stop-color="#525252" stop-opacity="0" />
                    <stop offset="0.479167" stop-color="#DA2F0A" />
                    <stop offset="0.649196" stop-color="#1C4ECE" />
                    <stop offset="0.989583" stop-color="#1C4ECE" />
                </linearGradient>
                <linearGradient 
                class="linear-control"
                id="paint2_linear_22_109" x1="298.063" y1="237.698" x2="74.9292" y2="371.636"
                    gradientUnits="userSpaceOnUse">
                    <stop offset="0.03125" stop-color="#525252" stop-opacity="0" />
                    <stop offset="0.479167" stop-color="#DA2F0A" />
                    <stop offset="0.649196" stop-color="#1C4ECE" />
                    <stop offset="0.989583" stop-color="#1C4ECE" />
                </linearGradient>
                <linearGradient 
                class="linear-control"
                id="paint3_linear_22_109" x1="285.425" y1="237.698" x2="62.2914" y2="371.636"
                    gradientUnits="userSpaceOnUse">
                    <stop offset="0.03125" stop-color="#525252" stop-opacity="0" />
                    <stop offset="0.479167" stop-color="#DA2F0A" />
                    <stop offset="0.649196" stop-color="#1C4ECE" />
                    <stop offset="0.989583" stop-color="#1C4ECE" />
                </linearGradient>
                <linearGradient 
                class="linear-control"
                id="paint4_linear_22_109" x1="322.595" y1="237.698" x2="99.4612" y2="371.636"
                    gradientUnits="userSpaceOnUse">
                    <stop offset="0.03125" stop-color="#525252" stop-opacity="0" />
                    <stop offset="0.479167" stop-color="#DA2F0A" />
                    <stop offset="0.649196" stop-color="#1C4ECE" />
                    <stop offset="0.989583" stop-color="#1C4ECE" />
                </linearGradient>
                <linearGradient 
                class="linear-control"
                id="paint5_linear_22_109" x1="310.7" y1="237.698" x2="87.5669" y2="371.636"
                    gradientUnits="userSpaceOnUse">
                    <stop offset="0.03125" stop-color="#525252" stop-opacity="0" />
                    <stop offset="0.479167" stop-color="#DA2F0A" />
                    <stop offset="0.649196" stop-color="#1C4ECE" />
                    <stop offset="0.989583" stop-color="#1C4ECE" />
                </linearGradient>
                <linearGradient 
                class="linear-control"
                id="paint6_linear_22_109" x1="334.489" y1="237.698" x2="111.356" y2="371.636"
                    gradientUnits="userSpaceOnUse">
                    <stop offset="0.03125" stop-color="#525252" stop-opacity="0" />
                    <stop offset="0.479167" stop-color="#DA2F0A" />
                    <stop offset="0.649196" stop-color="#1C4ECE" />
                    <stop offset="0.989583" stop-color="#1C4ECE" />
                </linearGradient>
                <linearGradient 
                class="linear-control"
                id="paint7_linear_22_109" x1="346.383" y1="237.698" x2="123.25" y2="371.636"
                    gradientUnits="userSpaceOnUse">
                    <stop offset="0.03125" stop-color="#525252" stop-opacity="0" />
                    <stop offset="0.479167" stop-color="#DA2F0A" />
                    <stop offset="0.649196" stop-color="#1C4ECE" />
                    <stop offset="0.989583" stop-color="#1C4ECE" />
                </linearGradient>
                <linearGradient 
                class="linear-control"
                id="paint8_linear_22_109" x1="313.262" y1="223" x2="313.262" y2="237"
                    gradientUnits="userSpaceOnUse">
                    <stop stop-color="#868686" />
                    <stop offset="1" stop-color="#868686" stop-opacity="0" />
                </linearGradient>
                <linearGradient 
                id="paint9_linear_22_109" x1="260.368" y1="175" x2="260.368" y2="191.967"
                    gradientUnits="userSpaceOnUse">
                    <stop stop-color="#4F4848" />
                    <stop offset="0.442708" stop-color="#4D4141" stop-opacity="0.557292" />
                    <stop offset="1" stop-color="#D9D9D9" stop-opacity="0" />
                </linearGradient>
                <linearGradient 
                id="paint10_linear_22_109" x1="272.157" y1="175" x2="272.157" y2="191.967"
                    gradientUnits="userSpaceOnUse">
                    <stop stop-color="#4F4848" />
                    <stop offset="0.442708" stop-color="#4D4141" stop-opacity="0.557292" />
                    <stop offset="1" stop-color="#D9D9D9" stop-opacity="0" />
                </linearGradient>
                <linearGradient 
                id="paint11_linear_22_109" x1="283.945" y1="175" x2="283.945" y2="191.967"
                    gradientUnits="userSpaceOnUse">
                    <stop stop-color="#4F4848" />
                    <stop offset="0.442708" stop-color="#4D4141" stop-opacity="0.557292" />
                    <stop offset="1" stop-color="#D9D9D9" stop-opacity="0" />
                </linearGradient>
                <linearGradient 
                id="paint12_linear_22_109" x1="296.354" y1="175" x2="296.354" y2="191.967"
                    gradientUnits="userSpaceOnUse">
                    <stop stop-color="#4F4848" />
                    <stop offset="0.442708" stop-color="#4D4141" stop-opacity="0.557292" />
                    <stop offset="1" stop-color="#D9D9D9" stop-opacity="0" />
                </linearGradient>
                <linearGradient 
                id="paint13_linear_22_109" x1="309.384" y1="175" x2="309.384" y2="191.967"
                    gradientUnits="userSpaceOnUse">
                    <stop stop-color="#4F4848" />
                    <stop offset="0.442708" stop-color="#4D4141" stop-opacity="0.557292" />
                    <stop offset="1" stop-color="#D9D9D9" stop-opacity="0" />
                </linearGradient>
                <linearGradient 
                id="paint14_linear_22_109" x1="321.172" y1="175" x2="321.172" y2="191.967"
                    gradientUnits="userSpaceOnUse">
                    <stop stop-color="#4F4848" />
                    <stop offset="0.442708" stop-color="#4D4141" stop-opacity="0.557292" />
                    <stop offset="1" stop-color="#D9D9D9" stop-opacity="0" />
                </linearGradient>
                <linearGradient 
                id="paint15_linear_22_109" x1="332.961" y1="175" x2="332.961" y2="191.967"
                    gradientUnits="userSpaceOnUse">
                    <stop stop-color="#4F4848" />
                    <stop offset="0.442708" stop-color="#4D4141" stop-opacity="0.557292" />
                    <stop offset="1" stop-color="#D9D9D9" stop-opacity="0" />
                </linearGradient>
                <linearGradient 
                id="paint16_linear_22_109" x1="345.37" y1="175" x2="345.37" y2="191.967"
                    gradientUnits="userSpaceOnUse">
                    <stop stop-color="#4F4848" />
                    <stop offset="0.442708" stop-color="#4D4141" stop-opacity="0.557292" />
                    <stop offset="1" stop-color="#D9D9D9" stop-opacity="0" />
                </linearGradient>
                <linearGradient 
                id="paint17_linear_22_109" x1="1.86135" y1="0" x2="1.86135" y2="16.9669"
                    gradientUnits="userSpaceOnUse">
                    <stop stop-color="#4F4848" />
                    <stop offset="0.442708" stop-color="#4D4141" stop-opacity="0.557292" />
                    <stop offset="1" stop-color="#D9D9D9" stop-opacity="0" />
                </linearGradient>
                <linearGradient 
                id="paint18_linear_22_109" x1="1.86135" y1="0" x2="1.86135" y2="16.9669"
                    gradientUnits="userSpaceOnUse">
                    <stop stop-color="#4F4848" />
                    <stop offset="0.442708" stop-color="#4D4141" stop-opacity="0.557292" />
                    <stop offset="1" stop-color="#D9D9D9" stop-opacity="0" />
                </linearGradient>
                <linearGradient 
                id="paint19_linear_22_109" x1="1.86135" y1="0" x2="1.86135" y2="16.9669"
                    gradientUnits="userSpaceOnUse">
                    <stop stop-color="#4F4848" />
                    <stop offset="0.442708" stop-color="#4D4141" stop-opacity="0.557292" />
                    <stop offset="1" stop-color="#D9D9D9" stop-opacity="0" />
                </linearGradient>
                <linearGradient 
                id="paint20_linear_22_109" x1="1.86135" y1="0" x2="1.86135" y2="16.9669"
                    gradientUnits="userSpaceOnUse">
                    <stop stop-color="#4F4848" />
                    <stop offset="0.442708" stop-color="#4D4141" stop-opacity="0.557292" />
                    <stop offset="1" stop-color="#D9D9D9" stop-opacity="0" />
                </linearGradient>
                <linearGradient 
                id="paint21_linear_22_109" x1="1.86135" y1="0" x2="1.86135" y2="16.9669"
                    gradientUnits="userSpaceOnUse">
                    <stop stop-color="#4F4848" />
                    <stop offset="0.442708" stop-color="#4D4141" stop-opacity="0.557292" />
                    <stop offset="1" stop-color="#D9D9D9" stop-opacity="0" />
                </linearGradient>
                <linearGradient 
                id="paint22_linear_22_109" x1="1.86135" y1="0" x2="1.86135" y2="16.9669"
                    gradientUnits="userSpaceOnUse">
                    <stop stop-color="#4F4848" />
                    <stop offset="0.442708" stop-color="#4D4141" stop-opacity="0.557292" />
                    <stop offset="1" stop-color="#D9D9D9" stop-opacity="0" />
                </linearGradient>
                <linearGradient 
                id="paint23_linear_22_109" x1="1.86135" y1="0" x2="1.86135" y2="16.9669"
                    gradientUnits="userSpaceOnUse">
                    <stop stop-color="#4F4848" />
                    <stop offset="0.442708" stop-color="#4D4141" stop-opacity="0.557292" />
                    <stop offset="1" stop-color="#D9D9D9" stop-opacity="0" />
                </linearGradient>
                <linearGradient 
                id="paint24_linear_22_109" x1="1.86135" y1="0" x2="1.86135" y2="16.9669"
                    gradientUnits="userSpaceOnUse">
                    <stop stop-color="#4F4848" />
                    <stop offset="0.442708" stop-color="#4D4141" stop-opacity="0.557292" />
                    <stop offset="1" stop-color="#D9D9D9" stop-opacity="0" />
                </linearGradient>
                <linearGradient 
                id="paint25_linear_22_109" x1="2.99417" y1="0" x2="2.99417" y2="10.5476"
                    gradientUnits="userSpaceOnUse">
                    <stop stop-color="#4F4848" />
                    <stop offset="0.442708" stop-color="#4D4141" stop-opacity="0.557292" />
                    <stop offset="1" stop-color="#D9D9D9" stop-opacity="0" />
                </linearGradient>
                <linearGradient 
                id="paint26_linear_22_109" x1="2.99417" y1="0" x2="2.99417" y2="10.5476"
                    gradientUnits="userSpaceOnUse">
                    <stop stop-color="#4F4848" />
                    <stop offset="0.442708" stop-color="#4D4141" stop-opacity="0.557292" />
                    <stop offset="1" stop-color="#D9D9D9" stop-opacity="0" />
                </linearGradient>
                <linearGradient 
                id="paint27_linear_22_109" x1="3.99223" y1="0" x2="3.99223" y2="10.5476"
                    gradientUnits="userSpaceOnUse">
                    <stop stop-color="#4F4848" />
                    <stop offset="0.442708" stop-color="#4D4141" stop-opacity="0.557292" />
                    <stop offset="1" stop-color="#D9D9D9" stop-opacity="0" />
                </linearGradient>
                <linearGradient 
                id="paint28_linear_22_109" x1="3.99222" y1="0" x2="3.99222" y2="10.5476"
                    gradientUnits="userSpaceOnUse">
                    <stop stop-color="#4F4848" />
                    <stop offset="0.442708" stop-color="#4D4141" stop-opacity="0.557292" />
                    <stop offset="1" stop-color="#D9D9D9" stop-opacity="0" />
                </linearGradient>
                <linearGradient 
                class="linear-control"
                id="paint29_linear_22_109" x1="281.543" y1="189.197" x2="164.715" y2="93.8086"
                    gradientUnits="userSpaceOnUse">
                    <stop offset="0.03125" stop-color="#525252" stop-opacity="0" />
                    <stop offset="0.479167" stop-color="#DA2F0A" />
                    <stop offset="0.649196" stop-color="#1C4ECE" />
                    <stop offset="0.989583" stop-color="#1C4ECE" />
                </linearGradient>
                <linearGradient 
                class="linear-control"
                id="paint30_linear_22_109" x1="267.379" y1="187.792" x2="180.725" y2="117.038"
                    gradientUnits="userSpaceOnUse">
                    <stop offset="0.03125" stop-color="#525252" stop-opacity="0" />
                    <stop offset="0.479167" stop-color="#DA2F0A" />
                    <stop offset="0.649196" stop-color="#1C4ECE" />
                    <stop offset="0.989583" stop-color="#1C4ECE" />
                </linearGradient>
                <linearGradient 
                class="linear-control"
                id="paint31_linear_22_109" x1="324.44" y1="189.197" x2="441.268" y2="93.8086"
                    gradientUnits="userSpaceOnUse">
                    <stop offset="0.03125" stop-color="#525252" stop-opacity="0" />
                    <stop offset="0.479167" stop-color="#DA2F0A" />
                    <stop offset="0.649196" stop-color="#1C4ECE" />
                    <stop offset="0.989583" stop-color="#1C4ECE" />
                </linearGradient>
                <linearGradient 
                class="linear-control"
                id="paint32_linear_22_109" x1="338.604" y1="187.792" x2="425.259" y2="117.038"
                    gradientUnits="userSpaceOnUse">
                    <stop offset="0.03125" stop-color="#525252" stop-opacity="0" />
                    <stop offset="0.479167" stop-color="#DA2F0A" />
                    <stop offset="0.649196" stop-color="#1C4ECE" />
                    <stop offset="0.989583" stop-color="#1C4ECE" />
                </linearGradient>
            </defs>
        </svg>